<?xml version="1.0" encoding="UTF-8"?>
<svg id="Capa_1" xmlns="http://www.w3.org/2000/svg" version="1.1" viewBox="0 0 48 48">
  <!-- Generator: Adobe Illustrator 30.3.0, SVG Export Plug-In . SVG Version: 2.1.3 Build 182)  -->
  <defs>
    <style>
      .st0 {
        fill: #c8ff01;
      }

      .st1 {
        fill: #999;
      }

      .st2 {
        display: none;
      }
    </style>
  </defs>
  <circle class="st1" cx="24" cy="24" r="22.8"/>
  <g class="st2">
    <path class="st1" d="M24.4,41.8h3.1c1,0,2,0,2.9-.2,3.9-.9,6.3-5,5.2-8.8-.4-1.3-.8-2.6-1.2-3.9-.6-1.9-1.6-3.5-3.3-4.6-.2-.1-.2-.6-.1-.7.3-.6.7-1.2,1.1-1.8,1.5-2.3,1.5-4.7,0-7-1.4-2.3-2.8-4.7-4.2-7-.5-.8-1-1.5-1.6-2.2-1.1-1.1-2.6-1.1-3.7,0-.3.3-.6.6-.8,1-1.7,2.7-3.4,5.5-5,8.3-1.3,2.3-1.3,4.6,0,6.8.4.6.7,1.2,1.1,1.8.3.4.2.7-.2,1-1.2.7-2.1,1.8-2.6,3.1-.7,1.9-1.4,3.8-1.8,5.7-1,4.7,2.3,8.7,7.1,8.7h4.1v-.2Z"/>
    <path class="st0" d="M24.4,41.8h-4.1c-4.8,0-8.1-4-7.1-8.7.4-2,1.1-3.8,1.8-5.7.5-1.3,1.4-2.3,2.6-3.1.5-.3.5-.6.2-1-.4-.6-.7-1.2-1.1-1.8-1.4-2.3-1.4-4.6,0-6.8,1.6-2.8,3.3-5.5,5-8.3.2-.4.5-.7.8-1,1.1-1.1,2.6-1.2,3.7,0,.6.6,1.1,1.4,1.6,2.2,1.4,2.3,2.9,4.6,4.2,7,1.4,2.4,1.4,4.7,0,7-.4.6-.8,1.2-1.1,1.8,0,.2,0,.6.1.7,1.7,1.1,2.7,2.7,3.3,4.6.4,1.3.9,2.6,1.2,3.9,1.1,3.8-1.3,7.9-5.2,8.8-.9.2-1.9.2-2.9.2h-3.1v.2ZM23.5,7.9q-.2,0-.3,0c-1.7,2.8-3.4,5.5-5,8.3-.7,1.3-.6,2.7.2,3.9.7,1.2,1.5,2.4,2.2,3.6.5.9.4,1.2-.6,1.6-1.6.5-2.7,1.6-3.2,3.1-.6,1.6-1.1,3.1-1.5,4.7-.8,2.9,1,5.7,3.9,6.3.8.2,1.7,0,2.6,0,.6,0,1.4.2,1.7-.7.3-.9-.2-1.3-1-1.6,0,0-.2,0-.2,0-.1-.3-.4-.8-.3-1,.2-.3.8-.5,1-.4.9.5,1.8.5,2.7,0,.2,0,.8,0,1,.4.1.2,0,.7-.2,1-.1.2-.6.3-.7.5-.2.4-.5.9-.5,1.3s.6.6,1,.7c.7,0,1.4,0,2.1,0,3.7,0,6-3,5.1-6.6-.4-1.4-.9-2.8-1.3-4.1-.6-1.7-1.7-2.9-3.4-3.5-1-.4-1.1-.7-.5-1.6.6-1.1,1.3-2.2,2-3.2,1.1-1.7,1-3.3,0-5-1.5-2.4-3-4.9-4.4-7.3-.1-.2-.1-.4-.2-.6-.1,0-.2.2-.3.3v8.2c0,.5.3,1,.5,1.4.6.9.6,1.8-.2,2.5-.7.6-1.8.7-2.5,0-.7-.6-.7-1.6-.2-2.5.3-.5.5-1,.5-1.6V7.9Z"/>
    <path class="st0" d="M29,33.7v-.8c0-.7.5-1.1,1.1-1.1s1.1.4,1.2,1.1v1.7c0,.7-.5,1.2-1.1,1.2s-1.1-.5-1.2-1.2v-.8h0Z"/>
    <path class="st0" d="M20,33.8v1c-.1.6-.5.9-1.1.9s-1.1-.4-1.1-1v-1.7c0-.7.5-1.2,1.1-1.2s1.1.4,1.1,1.1v.9h0Z"/>
  </g>
  <g class="st2">
    <path class="st0" d="M18.7,8.3c.3,0,.5.3.5.6l.3,1.2c1.6-.3,3.2.1,4.4,1.1,1.3-1,2.9-1.4,4.4-1.1l.3-1.2c0-.3.2-.5.5-.6h.2c.3.1.5.4.4.8l-.3,1.4c2.1.9,3.4,2.9,3.8,5.1,1.2,0,2.2.4,3.1,1.1l1.2-1.2c.2-.2.6-.3.8,0s.3.6,0,.8l-1.2,1.2c.8.9,1.2,2,1.4,3.2.1,1.2-.1,2.3-.6,3.4-.9,2-2.6,3.5-4.7,4.2-.2,1.3-.8,2.5-1.6,3.5v5.2c0,.4-.2.6-.6.6h-4.6c-.3,0-.6-.3-.6-.5s.2-.6.6-.6h4s0-4.9,0-4.9c0-.2,0-.3.2-.5.8-.9,1.3-2.1,1.5-3.3s.2-.5.5-.5c2.8-.8,5-3.6,4.7-6.5s-2.2-4.1-4.5-4-.4,0-.5-.1-.2-.3-.2-.5c-.2-1.4-.8-2.8-1.8-3.7-1.7-1.6-4.2-1.6-6,0s-.6.3-.9,0c-1.8-1.7-4.6-1.6-6.3.2s-1.4,2.2-1.6,3.5-.3.6-.7.6c-2.4,0-4.3,1.8-4.5,4.2s1.9,5.5,4.7,6.4.4.2.4.5c.1,1.3.6,2.5,1.5,3.4,0,0,.2.3.2.4v5s4,0,4,0c.4,0,.6.2.6.6s-.3.6-.6.6h-4.5c-.3,0-.6-.2-.6-.5v-5.4c-.9-1-1.4-2.2-1.6-3.5-1.6-.6-3-1.6-3.9-3.1-.9-1.3-1.3-2.8-1.3-4.3,0-1.2.5-2.4,1.3-3.3l-1.3-1.3v-.2c-.1,0-.1-.3-.1-.3.1-.1.2-.3.4-.4s.4,0,.5,0l1.3,1.3c.9-.7,1.9-1.1,3.1-1.2.4-2.2,1.7-4.2,3.8-5.1l-.4-1.5c0-.3.2-.6.5-.7h.2Z"/>
    <path class="st0" d="M24.6,29.8c-.4-.3-.9-.3-1.3,0-1.5,1.1-3.6.7-4.6-.8s-.4-3.6,1.2-4.5c.1-2.1,1.9-3.8,4-3.8s3.9,1.6,4,3.8c1.7.8,2.2,2.9,1.2,4.5s-3.1,2-4.6.8ZM25.4,28.9c1,.8,2.4.4,3-.7s0-2.4-1.1-2.8-.4-.3-.4-.6c0-1.7-1.3-3-2.9-3s-2.9,1.3-2.8,3-.2.5-.4.6c-1.2.4-1.7,1.8-1.1,2.9s2,1.4,3,.6,1.9-.6,2.7,0Z"/>
    <path class="st0" d="M21.7,19.7c-.7.6-1.7.6-2.3,0-1.5-1.2-1.5-4.2,0-5.4s1.6-.6,2.3,0c1.6,1.2,1.6,4.2,0,5.5ZM20.5,19c.4,0,.6-.3.8-.6.8-1.5,0-3.5-.8-3.4s-.6.3-.7.6c-.8,1.4-.1,3.4.8,3.4Z"/>
    <path class="st0" d="M29.7,16.8c0,1.6-.8,3.4-2.3,3.3s-1-.3-1.4-.7c-1.1-1.3-1.1-3.7,0-4.9s2-.8,2.8,0,.8,1.4.9,2.3ZM27.5,19c.3,0,.6-.3.8-.6.8-1.5,0-3.4-.8-3.4s-1.6,2-.8,3.5.4.6.8.5Z"/>
    <path class="st0" d="M31.6,24.9c-1.2.2-2.1-.6-2.2-1.7-.1-1.9,2-4,3.9-3.8s1.5.7,1.6,1.6c.2,1.7-1.4,3.6-3.3,3.9ZM33.7,21.8c.1-.3.1-.7,0-1s-.5-.3-.8-.2c-1.7.3-2.8,2.5-2,3.1s2.5-.4,2.9-1.9Z"/>
    <path class="st0" d="M18.7,23.2c0,1-.8,1.7-1.8,1.7s-1.3-.2-1.9-.6c-1.6-1-2.5-3.2-1.3-4.4s1-.6,1.7-.5c1.8.3,3.4,2,3.3,3.8ZM17.5,23.3c0-.3,0-.6,0-.9-.6-1.5-2.4-2.3-3-1.7s.4,2.7,2.2,3,.7,0,.9-.5Z"/>
    <path class="st0" d="M23.8,36.6c.3-.1.6,0,.7.3s0,.6-.3.7-.6,0-.7-.3,0-.7.3-.8Z"/>
  </g>
  <g>
    <path class="st0" d="M16.7,34.8c-1.7-.3-2.9-1.3-4.7-.5s-1,.4-1.5.4c-.8,0-1.4-.3-1.7-1s-.2-1.1,0-1.6l.5-1.8c.5-1.9-1.4-3.8-.6-7.4s1.7-4.8,3.5-6.7c3.5-3.5,9.2-5.7,14.1-4.3,1.1-.7,2.5-.4,3.1.7h.4s.7-.9.7-.9c-.4-.4-.7-.7-1.1-1-2.9,1-6,1-8.7-.3l-2.8-1.3c-.8-.4-1.6-.6-2.4-.6s-.4,0-.5-.3,0-.4.2-.5c3-2,6.7-3.4,10.2-2.2s3.2,1.6,4.1,3.1.4.9.4,1.4c.1,0,.3.1.4.2l.8.8c.3-.5.9-.5,1.2-.2s.3.9,0,1.2-.9.9-1.1,1.4v.8c1.1.7,1.3,2.1.4,3,.2.6.3,1.1,0,1.7,2.8.8,5.3,2.4,6.8,5s1.1,3.6.7,5.5-1.3,3.7-2.6,5.3l.8.3c.4.2.7.7.6,1.2s-.5.9-1,1.1c-2,1-4,1.6-6.2,2-4.3.7-8.7-.3-11.7-3.5s-1.3-.9-2.1-1.1ZM28.6,10.2c-1.9-.9-3.9-1.4-6-1.7s-.2-.3-.2-.4.2-.3.4-.3c2.1.2,4.1.8,6,1.7-.6-1.2-1.5-2-2.6-2.6-3.2-1.6-6.8-.7-9.8,1.1.9.3,1.7.5,2.5.9l1.8.9c2.2,1,4.6,1.3,7,.8l.9-.2ZM16.5,24.4c1.2-2.6,3.5-4.4,6.3-4.9,2.5-.9,5.2-1.1,7.8-.5.4-1-.5-1.6,0-2s.5-.6.5-1.1-.2-.7-.6-.9,0-.9-.4-1.3-1.1.3-1.4-.5-1.3-1-1.9-.5-.3.2-.6.2c-4.6-1.4-10.1.7-13.4,4s-4.1,6.3-3.5,9.4,1.5,3.4.4,5.4-.3.9-.3,1.4.4.6.8.6c1.1-.1,2-1.6,4-.9l1.6.5c.6.2,1.1.3,1.8.3-2-2.5-2.6-6.1-1.2-9.1ZM33.7,34.4c1.5-.8,2.7-1.9,3.6-3.3,1.3-2.1,1.3-4.7,0-6.8s-2.1-2.6-3.7-3.4c-3.5-1.8-7.8-1.9-11.4-.3s-3.1,1.9-4.1,3.4c-1.4,2.1-1.5,4.8-.2,7s1.7,2.2,2.9,3c3.8,2.4,9,2.6,12.9.5ZM32.7,35.8c-4.8,1.8-10.5,1-14.2-2.6,2.1,3.7,6.2,5.6,10.4,5s5.5-2,7.2-4.4c-1.1.8-2.1,1.5-3.4,2Z"/>
    <path class="st0" d="M13.4,24.6c0,.3-.2.5-.4.5s-.4-.2-.4-.5.1-.5.3-.5.5.1.5.5Z"/>
    <path class="st0" d="M27.9,14c.3.2.2.5,0,.7s-.4.1-.6,0-.2-.4,0-.7.4-.2.6,0Z"/>
    <path class="st0" d="M28.6,16.9c0,.2-.4.3-.5.2s-.3-.3-.2-.6.3-.4.6-.3.3.3.2.6Z"/>
    <path class="st0" d="M15.7,32.4c-.1,0-.3-.2-.3-.3s0-.4.1-.4c.2-.1.4-.1.6,0s.2.4,0,.6-.3.3-.5.2Z"/>
    <path class="st0" d="M20.7,19.1c-.4,0-.5-.5-.3-.7s.4-.2.6,0,.2.3.2.5-.2.4-.4.4Z"/>
    <path class="st0" d="M15.6,17.8c-.2.1-.5.1-.6,0s0-.4,0-.6.5-.2.6,0,.1.4-.1.6Z"/>
    <path class="st0" d="M12.6,29.6c.2,0,.4.1.5.3,0,.3,0,.5-.3.5s-.4,0-.5-.3,0-.4.3-.5Z"/>
    <path class="st0" d="M22.5,14.7c0,.1-.2.4-.3.4s-.4,0-.4-.2,0-.4.1-.5l.6.3Z"/>
    <path class="st0" d="M25.6,34.2c-1.8.6-3.7-.4-4-2.3-1.9,0-3.2-1-3.5-2.9s.1-1.1.5-1.5c-.4-.6-.5-1.2-.4-1.9.3-1.3,1.3-2.2,2.7-2.3,0-1.9,2.5-3.1,4.3-2.4,1.2-1.2,3-1.5,4.6-.8s.9.7,1.2,1.2c.9-.2,1.7-.2,2.5.1,1.1.5,1.8,1.6,1.7,2.9,1,.5,1.7,1.3,1.8,2.4s-.4,2.2-1.4,2.9c.2,1.4-.5,2.7-1.8,3.3s-2,.5-3,.4c-1.1,1.7-3.5,2.1-5.1.7ZM27.9,25.8l2.2-4.2c-.1-.3-.4-.6-.7-.7-1.3-.5-2.8-.2-3.8.9.5,1.4,1.1,2.8,1.9,4.1,0,0,.2,0,.3,0s.1-.1.2-.2ZM26.5,26.3l.2-.2c-.8-1.4-1.5-2.9-2-4.4-1.1-.3-2.2,0-2.8.9s-.3.6-.2.9l4.7,2.8ZM29.3,26.4l5.1-1.9c.2-1.1-.5-2.1-1.6-2.3s-1.5,0-2.2.3l-1.9,3.8.6.2ZM26,27l-4.6-2.7c-.6-.3-1.4.1-1.8.5-.7.7-.9,2-.1,2.5l6.6-.2ZM35.2,29c.5-.3,1-.9,1-1.6,0-1-.6-2-1.5-2.3-1.7.7-3.3,1.3-5,1.8v.6c1.8.6,3.5,1.1,5.5,1.5ZM19.9,30.6c.7.5,1.5.6,2.3.4,1.2-1.2,2.4-2.2,3.8-3.1l-6.7.2c-.3,0-.4.5-.4.7.1.7.4,1.3,1,1.8ZM33.9,32.1c.8-.6,1.1-1.5.9-2.4-1.8-.4-3.5-.9-5.2-1.4v.2c.5,1.4,1,2.7,1.5,4.2,1,0,2,0,2.9-.7ZM25.5,33.4l1.4-4.6c0-.1-.2-.2-.4-.2-1.5.9-2.8,2-4,3.3.3,1.4,1.7,2.2,3,1.6ZM30.2,32.9c-.4-1.3-.9-2.5-1.4-3.8-.4,0-.8,0-1.2,0l-1.3,4.6c.7.5,1.4.8,2.3.5s1.4-.7,1.6-1.3Z"/>
  </g>
</svg>